<?xml version="1.0" encoding="UTF-8"?> <svg xmlns="http://www.w3.org/2000/svg" xmlns:xlink="http://www.w3.org/1999/xlink" width="144px" height="37px" viewBox="0 0 144 37" version="1.1"><title>COD Logo</title><g id="Symbols" stroke="none" stroke-width="1" fill="none" fill-rule="evenodd"><g id="COD_FOOTER" transform="translate(-127.000000, -93.000000)" fill-rule="nonzero"><g id="COD-Logo" transform="translate(127.000000, 93.000000)"><path d="M61.3540299,27.8113433 C62.2822362,27.81131 63.03691,28.5595882 63.0447761,29.4877612 C63.0435561,29.9542815 62.8551439,30.4007924 62.521791,30.7271642 C57.8539683,34.7161797 50.9017743,34.4383417 46.5671642,30.0895522 C44.3293615,27.9149309 43.0878134,24.9134429 43.1355224,21.7934328 C43.0943064,18.6851533 44.3356082,15.6972181 46.5671642,13.5331343 C50.8969388,9.18628199 57.8443285,8.90838641 62.5074627,12.8955224 C62.8861975,13.2190255 63.1014658,13.6941911 63.0950702,14.1922388 C63.0871392,15.1148545 62.3411231,15.8608705 61.4185075,15.8686567 C61.0287816,15.8734975 60.6501695,15.7388234 60.3510448,15.4889552 C57.0406565,12.589824 52.048877,12.7559033 48.9385075,15.8686567 C47.3390653,17.4207686 46.4523388,19.5649874 46.4883582,21.7934328 C46.4864571,24.0158422 47.3679734,26.1478782 48.9387827,27.7200312 C50.509592,29.2921842 52.6408734,30.1755232 54.8632836,30.1755224 C56.8794583,30.2039594 58.8319256,29.4695451 60.3295522,28.119403 C60.6277631,27.9066197 60.9879194,27.798321 61.3540299,27.8113433 L61.3540299,27.8113433 Z" id="Path" fill="#FFFFFF"></path><path d="M90.0465672,21.8220896 C90.0863596,24.9321918 88.8454376,27.9218035 86.6149254,30.0895522 C82.0309122,34.6660752 74.6066997,34.6660752 70.0226866,30.0895522 C67.8053355,27.9157218 66.5776858,24.9268868 66.6268657,21.8220896 C66.5777164,18.7039024 67.8196474,15.7040817 70.0585075,13.5331343 C72.2581603,11.3317086 75.2425941,10.0948113 78.3546269,10.0948113 C81.4666596,10.0948113 84.4510934,11.3317086 86.6507463,13.5331343 C88.8764435,15.7101938 90.1050895,18.7092306 90.0465672,21.8220896 L90.0465672,21.8220896 Z M78.318806,13.4471611 C76.0970548,13.4452612 73.9657539,14.3270057 72.394738,15.8980216 C70.8237222,17.4690375 69.9419776,19.6003384 69.9438775,21.8220896 C69.9438775,26.4474331 73.6934624,30.1970149 78.318806,30.1970149 C82.9441495,30.1970149 86.6937344,26.4474331 86.6937344,21.8220896 C86.6956343,19.6003384 85.8138898,17.4690375 84.2428739,15.8980216 C82.671858,14.3270057 80.5405571,13.4452612 78.318806,13.4471611 L78.318806,13.4471611 Z" id="Shape" fill="#FFFFFF"></path><path d="M113.50209,1.67641791 C113.496459,1.2310123 113.675391,0.803132 113.996418,0.494328358 C114.305222,0.173301625 114.733102,-0.00563013853 115.178507,-0.000272589822 C115.624418,-0.00825034005 116.053304,0.171102219 116.360597,0.494328358 C116.681624,0.803132 116.860556,1.2310123 116.854925,1.67641791 L116.854925,21.8220896 C116.894718,24.9321918 115.653796,27.9218035 113.423284,30.0895522 C108.83927,34.6660752 101.415058,34.6660752 96.8310448,30.0895522 C94.5932421,27.9149309 93.351694,24.9134429 93.399403,21.7934328 C93.3502537,18.6752457 94.5921847,15.675425 96.8310448,13.5044776 C99.0306976,11.3030519 102.015131,10.0661546 105.127164,10.0661546 C108.239197,10.0661546 111.223631,11.3030519 113.423284,13.5044776 C113.451316,13.5289212 113.477646,13.5552512 113.50209,13.5832836 L113.50209,1.67641791 Z M113.50209,21.8220896 C113.50209,17.196746 109.752508,13.4471642 105.127164,13.4471642 C100.501821,13.4471642 96.7522388,17.196746 96.7522388,21.8220896 C96.7522388,26.4474331 100.501821,30.1970149 105.127164,30.1970149 C109.752508,30.1970149 113.50209,26.4474331 113.50209,21.8220896 Z" id="Shape" fill="#FFFFFF"></path><path d="M140.310448,30.0322388 C136.974965,33.4348043 131.912392,34.4811295 127.501335,32.6796076 C123.090279,30.8780857 120.207624,26.5868455 120.207761,21.8220896 C120.158612,18.7039024 121.400543,15.7040817 123.639403,13.5331343 C125.839056,11.3317086 128.82349,10.0948113 131.935522,10.0948113 C135.047555,10.0948113 138.031989,11.3317086 140.231642,13.5331343 C142.470502,15.7040817 143.712433,18.7039024 143.663284,21.8220896 L143.663284,31.8519403 C143.663284,32.7778003 142.912726,33.5283582 141.986866,33.5283582 C141.54301,33.5333312 141.116245,33.3574522 140.804776,33.041194 C140.482643,32.7301845 140.303689,32.299658 140.310448,31.8519403 L140.310448,30.0322388 Z M131.935522,13.4471611 C129.713771,13.4452612 127.58247,14.3270057 126.011454,15.8980216 C124.440439,17.4690375 123.558694,19.6003384 123.560594,21.8220896 C123.560594,24.8141623 125.156849,27.5789516 127.74806,29.074988 C130.339271,30.5710244 133.531774,30.5710244 136.122985,29.074988 C138.714196,27.5789516 140.310451,24.8141623 140.310451,21.8220896 C140.312351,19.6003384 139.430606,17.4690375 137.85959,15.8980216 C136.288574,14.3270057 134.157274,13.4452612 131.935522,13.4471611 L131.935522,13.4471611 Z" id="Shape" fill="#FFFFFF"></path><line x1="31.1426866" y1="10.5886567" x2="7.04238806" y2="10.5886567" id="Path" fill="#F0F0F0"></line><path d="M31.1426866,11.6632836 L7.04238806,11.6632836 C6.44888803,11.6632836 5.96776119,11.1821567 5.96776119,10.5886567 C5.96776119,9.99515669 6.44888803,9.51402985 7.04238806,9.51402985 L31.1426866,9.51402985 C31.7361866,9.51402985 32.2173134,9.99515669 32.2173134,10.5886567 C32.2173134,11.1821567 31.7361866,11.6632836 31.1426866,11.6632836 Z" id="Path" fill="#FBAC0C"></path><rect id="Rectangle" fill="#FBAC0C" transform="translate(19.182291, 10.583796) rotate(45.000000) translate(-19.182291, -10.583796) " x="15.6145299" y="7.01603512" width="7.13552239" height="7.13552239" rx="3.56776119"></rect><line x1="31.1426866" y1="31.2716418" x2="7.04238806" y2="31.2716418" id="Path" fill="#F0F0F0"></line><path d="M31.1426866,32.3462687 L7.04238806,32.3462687 C6.44888803,32.3462687 5.96776119,31.8651418 5.96776119,31.2716418 C5.96776119,30.6781418 6.44888803,30.1970149 7.04238806,30.1970149 L31.1426866,30.1970149 C31.7361866,30.1970149 32.2173134,30.6781418 32.2173134,31.2716418 C32.2173134,31.8651418 31.7361866,32.3462687 31.1426866,32.3462687 Z" id="Path" fill="#FBAC0C"></path><rect id="Rectangle" fill="#FBAC0C" transform="translate(19.179302, 31.269771) rotate(45.000000) translate(-19.179302, -31.269771) " x="15.6115405" y="27.7020096" width="7.13552239" height="7.13552239" rx="3.56776119"></rect><line x1="25.1749254" y1="21.0268657" x2="1.07462687" y2="21.0268657" id="Path" fill="#F0F0F0"></line><path d="M25.1749254,22.1014925 L1.07462687,22.1014925 C0.481126836,22.1014925 0,21.6203657 0,21.0268657 C0,20.4333656 0.481126836,19.9522388 1.07462687,19.9522388 L25.1749254,19.9522388 C25.7684254,19.9522388 26.2495522,20.4333656 26.2495522,21.0268657 C26.2495522,21.6203657 25.7684254,22.1014925 25.1749254,22.1014925 Z" id="Path" fill="#FBAC0C"></path><rect id="Rectangle" fill="#FBAC0C" transform="translate(13.214662, 21.028752) rotate(45.000000) translate(-13.214662, -21.028752) " x="9.64690031" y="17.4609909" width="7.13552239" height="7.13552239" rx="3.56776119"></rect></g></g></g></svg> 